<svg xmlns="http://www.w3.org/2000/svg" width="32" height="32" viewBox="0 0 32 32">
  <rect width="32" height="32" rx="8" fill="#8c1c13"/>
  <g transform="translate(8, 5)" stroke="#fff" stroke-width="1.5" fill="none" stroke-linecap="round" stroke-linejoin="round">
    <path d="M1 1h14"/>
    <path d="M1 21h14"/>
    <path d="M3 1v4.5c0 1.5 1.5 3.5 5 6 -3.5 2.5-5 4.5-5 6V21"/>
    <path d="M13 1v4.5c0 1.5-1.5 3.5-5 6 3.5 2.5 5 4.5 5 6V21"/>
    <path d="M5 18.5c0-1 1-2 3-3.5 2 1.5 3 2.5 3 3.5v1H5v-1z" fill="#fff" stroke="none"/>
  </g>
</svg>
